{"title":"Lindsey Stirling Ft. Lzzy Hale - Shatter Me [Music Video] 720p [","uid":10090170,"size":80951982,"categoryP":"video","categoryS":"music_videos","magnet":"?xt=urn:btih:1f9cc1859347568bccdbeca93012693645e58c19&amp;dn=Lindsey+Stirling+Ft.+Lzzy+Hale+-+Shatter+Me+%5BMusic+Video%5D+720p+%5B&amp;tr=udp%3A%2F%2Ftracker.openbittorrent.com%3A80&amp;tr=udp%3A%2F%2Fopen.demonii.com%3A1337&amp;tr=udp%3A%2F%2Ftracker.coppersurfer.tk%3A6969&amp;tr=udp%3A%2F%2Fexodus.desync.com%3A6969","seeders":2,"leechers":0,"uploader":"Sbyky","files":1,"time":1399180323,"description":"\n\nGeneral\nComplete name                            : Lindsey Stirling Ft. Lzzy Hale - Shatter Me [Music Video] 720p [Sbyky].MP4\nFormat                                   : MPEG-4\nFormat profile                           : Base Media / Version 2\nCodec ID                                 : mp42\nFile size                                : 77.2 MiB\nDuration                                 : 5mn 19s\nOverall bit rate mode                    : Variable\nOverall bit rate                         : 2 027 Kbps\nEncoded date                             : UTC 2014-04-22 23:01:27\nTagged date                              : UTC 2014-04-22 23:01:27\n\nVideo\nID                                       : 1\nFormat                                   : AVC\nFormat/Info                              : Advanced Video Codec\nFormat profile                           : &lt;a class=&quot;__cf_email__&quot; href=&quot;/cdn-cgi/l/email-protection&quot; data-cfemail=&quot;fbb3929c93bbb7c8d5ca&quot;&gt;[email&amp;#160;protected]&lt;/a&gt;&lt;script cf-hash='f9e31' type=&quot;text/javascript&quot;&gt;\n/* &lt;![CDATA[ */!function(){try{var t=&quot;currentScript&quot;in document?document.currentScript:function(){for(var t=document.getElementsByTagName(&quot;script&quot;),e=t.length;e--;)if(t[e].getAttribute(&quot;cf-hash&quot;))return t[e]}();if(t&amp;&amp;t.previousSibling){var e,r,n,i,c=t.previousSibling,a=c.getAttribute(&quot;data-cfemail&quot;);if(a){for(e=&quot;&quot;,r=parseInt(a.substr(0,2),16),n=2;a.length-n;n+=2)i=parseInt(a.substr(n,2),16)^r,e+=String.fromCharCode(i);e=document.createTextNode(e),c.parentNode.replaceChild(e,c)}}}catch(u){}}();/* ]]&gt; */&lt;/script&gt;\nFormat settings, CABAC                   : Yes\nFormat settings, ReFrames                : 1 frame\nCodec ID                                 : avc1\nCodec ID/Info                            : Advanced Video Coding\nDuration                                 : 5mn 19s\nBit rate                                 : 1 832 Kbps\nMaximum bit rate                         : 4 929 Kbps\nWidth                                    : 1 280 pixels\nHeight                                   : 720 pixels\nDisplay aspect ratio                     : 16:9\nFrame rate mode                          : Constant\nFrame rate                               : 23.976 fps\nColor space                              : YUV\nChroma subsampling                       : 4:2:0\nBit depth                                : 8 bits\nScan type                                : Progressive\nBits/(Pixel*Frame)                       : 0.083\nStream size                              : 69.8 MiB (90%)\nTagged date                              : UTC 2014-04-22 23:01:28\n\nAudio\nID                                       : 2\nFormat                                   : AAC\nFormat/Info                              : Advanced Audio Codec\nFormat profile                           : LC\nCodec ID                                 : 40\nDuration                                 : 5mn 19s\nBit rate mode                            : Variable\nBit rate                                 : 192 Kbps\nMaximum bit rate                         : 201 Kbps\nChannel(s)                               : 2 channels\nChannel positions                        : Front: L R\nSampling rate                            : 44.1 KHz\nCompression mode                         : Lossy\nStream size                              : 7.31 MiB (9%)\nTitle                                    : IsoMedia File Produced by Google, 5-11-2011\nEncoded date                             : UTC 2014-04-22 23:01:28\nTagged date                              : UTC 2014-04-22 23:01:28\n\nShared By Sbyky\n","torrent":{"xt":"urn:btih:1f9cc1859347568bccdbeca93012693645e58c19","amp;dn":"Lindsey+Stirling+Ft.+Lzzy+Hale+-+Shatter+Me+%5BMusic+Video%5D+720p+%5B","amp;tr":["udp%3A%2F%2Ftracker.openbittorrent.com%3A80","udp%3A%2F%2Fopen.demonii.com%3A1337","udp%3A%2F%2Ftracker.coppersurfer.tk%3A6969","udp%3A%2F%2Fexodus.desync.com%3A6969"],"infoHash":"1f9cc1859347568bccdbeca93012693645e58c19","infoHashBuffer":{"type":"Buffer","data":[31,156,193,133,147,71,86,139,204,219,236,169,48,18,105,54,69,229,140,25]},"announce":[],"urlList":[]}}